<svg xmlns="http://www.w3.org/2000/svg" xmlns:xlink="http://www.w3.org/1999/xlink" viewBox="0 0 155.38 155.63"><defs><style>.a{fill:url(#a);}.b,.c{fill:none;}.b{stroke:#fff;stroke-miterlimit:10;stroke-width:5px;}.d{fill:#f2f2f2;}</style><linearGradient id="a" x1="23.48" y1="132.15" x2="132.02" y2="23.6" gradientUnits="userSpaceOnUse"><stop offset="0" stop-color="#72afd3"/><stop offset="1" stop-color="#37ecba"/></linearGradient></defs><title>Pass_the_Aux_Logo_2019</title><circle class="a" cx="77.75" cy="77.88" r="76.75"/><path class="b" d="M79.2,46.69a28.88,28.88,0,0,1,29.22,28.56"/><path class="b" d="M79,36.81a38.88,38.88,0,0,1,39.34,38.46"/><path class="b" d="M78.9,27.17A48.36,48.36,0,0,1,127.84,75"/><path class="b" d="M78.75,17.31c32.14-.49,58.55,25.32,59,57.71"/><path class="c" d="M75.73,79c.53.52.92.84,1.24,1.22,1,1.18,2,.6,2.9,0,2.18-1.52,6-1.24,6.63-4.16.94-4.6-1-6.41-5.47-7.16-2.13-.36-3.34.13-4,2.21a22.83,22.83,0,0,1-1.9,4.35C74.2,77.06,74.36,78.24,75.73,79Z"/><path class="c" d="M60.55,95.23c3.86,3.77,3.83,3.74,7.19-.11.78-.9,1-1.44,0-2.31-1.71-1.54-3.31-3.2-5-4.81-.47-.45-.8-.9-1.66-.36-3.73,2.36-4,4.21-1,7.19Z"/><path class="c" d="M69.24,86.46l1.23,1.2c2.48,2.42,2.72,2.35,4.91-.35.76-.94.51-1.41-.21-2.09C73.5,83.65,71.9,82,70.25,80.45c-.44-.42-.76-1-1.64-.47-2.54,1.5-2.84,3.09-.8,5.09Z"/><path class="c" d="M47.52,107.13c4.32,4.22,4.32,4.22,8.59-.15,4.46-4.57,4.46-4.57-.07-9a11.52,11.52,0,0,1-1.23-1.22c-1-1.29-1.74-1-2.7.08-1.46,1.65-3.07,3.18-4.61,4.76C44.76,104.43,44.76,104.43,47.52,107.13Z"/><path class="c" d="M38.91,108.13q4.59,4.52,9.22,9c.38.37.78,1,1.38.27h0a1.94,1.94,0,0,0,.22-.22c.72-.86-.06-1.13-.41-1.48-1.45-1.47-2.94-2.9-4.42-4.34s-3.06-3-4.62-4.49c-.36-.34-.65-1.11-1.5-.33a1.94,1.94,0,0,0-.18.19l0,0C37.83,107.43,38.55,107.78,38.91,108.13Z"/><path class="d" d="M28.53,109.63c1.27-1.32,2-1.41,3.34-.06,5,5,10,9.9,15.1,14.77,1.13,1.08,1.3,1.77.11,3q-6.62,6.74-13.22,13.5,2.47,1.73,5.09,3.26l3-3.07c4.1-4.21,8.2-8.44,12.34-12.61,1.26-1.27,2-2.87.74-4.15-1.8-1.8-.76-2.69.52-3.84s2.82-2.7,1.85-4.68c-.69-1.41-.09-2,.73-2.85Q69.59,101.17,81,89.42c.63-.64,1.68-1.21,1.62-2.12-.19-2.7,1.9-3.1,3.61-3.94,1.26-.61,2.55-1.16,3.78-1.81a3.39,3.39,0,0,0,2-3.87c-.57-3.34-1.08-6.69-1.61-10a3.18,3.18,0,0,0-2.92-2.89c-3.44-.48-6.89-.89-10.32-1.36a3.14,3.14,0,0,0-3.57,2c-.93,2-1.82,4.06-2.77,6.06-.25.52-.21,1.41-1.22,1.24-1.66-.27-2.55.91-3.52,1.91Q54.8,86.17,43.53,97.73c-1,1.08-1.86,2.19-3.65,1.09-.94-.58-2.05-.11-2.86.82s-1.75,1.76-2.58,2.69c-.56.62-.92.58-1.6.06-2.74-2.1-3.34-2-5.8.5L12.3,118c1,1.7,2.15,3.34,3.32,4.95Q22.1,116.3,28.53,109.63ZM75.11,75.48A22.83,22.83,0,0,0,77,71.13c.68-2.09,1.88-2.57,4-2.21,4.52.75,6.41,2.56,5.47,7.16-.6,2.92-4.45,2.65-6.63,4.16-.9.62-1.91,1.2-2.9,0-.32-.38-.71-.7-1.24-1.22C74.36,78.24,74.2,77.06,75.11,75.48ZM68.61,80c.89-.52,1.2.06,1.64.47,1.65,1.58,3.26,3.21,4.92,4.77.72.68,1,1.15.21,2.09-2.19,2.7-2.43,2.77-4.91.35l-1.23-1.2-1.43-1.4C65.77,83.07,66.07,81.47,68.61,80Zm-7.5,7.67c.86-.55,1.19-.1,1.66.36,1.66,1.61,3.25,3.27,5,4.81,1,.87.78,1.42,0,2.31-3.36,3.85-3.32,3.88-7.19.11l-.41-.4C57.09,91.85,57.38,90,61.11,87.64Zm-13.6,14c1.54-1.58,3.15-3.11,4.61-4.76,1-1.09,1.73-1.37,2.7-.08A11.52,11.52,0,0,0,56,98c4.53,4.43,4.53,4.43.07,9-4.27,4.37-4.27,4.37-8.59.15C44.76,104.43,44.76,104.43,47.51,101.61Zm-8.95,5.16,0,0a1.94,1.94,0,0,1,.18-.19c.85-.78,1.13,0,1.5.33,1.56,1.47,3.08,3,4.62,4.49s3,2.87,4.42,4.34c.35.36,1.14.62.41,1.48a1.94,1.94,0,0,1-.22.22h0c-.6.75-1,.1-1.38-.27q-4.62-4.49-9.22-9C38.55,107.78,37.83,107.43,38.56,106.77Z"/></svg>