<svg xmlns="http://www.w3.org/2000/svg" xmlns:xlink="http://www.w3.org/1999/xlink" viewBox="0 0 785 157"><defs><style>.a{font-size:98.61px;font-family:NirmalaUI-Bold, Nirmala UI;font-weight:700;letter-spacing:-0.03em;}.b{letter-spacing:0em;}.c{fill:url(#a);}.d,.e{fill:none;}.d{stroke:#fff;stroke-miterlimit:10;stroke-width:5px;}.f{fill:#f2f2f2;}</style><linearGradient id="a" x1="30.93" y1="132.69" x2="139.47" y2="24.15" gradientUnits="userSpaceOnUse"><stop offset="0" stop-color="#72afd3"/><stop offset="1" stop-color="#37ecba"/></linearGradient></defs><title>Pass_the_Aux_Logo_2019</title><text class="a" transform="translate(190.58 112.52)">P<tspan class="b" x="57.4" y="0">ass the Aux</tspan></text><circle class="c" cx="85.2" cy="78.42" r="76.75"/><path class="d" d="M86.65,47.23a28.88,28.88,0,0,1,29.22,28.56"/><path class="d" d="M86.5,37.35a38.88,38.88,0,0,1,39.34,38.46"/><path class="d" d="M86.35,27.72a48.36,48.36,0,0,1,48.94,47.83"/><path class="d" d="M86.2,17.85c32.14-.49,58.55,25.32,59,57.71"/><path class="e" d="M83.18,79.59c.53.52.92.84,1.24,1.22,1,1.18,2,.6,2.9,0,2.18-1.52,6-1.24,6.63-4.16.94-4.6-1-6.41-5.47-7.16-2.13-.36-3.34.13-4,2.21A22.83,22.83,0,0,1,82.56,76C81.65,77.61,81.81,78.79,83.18,79.59Z"/><path class="e" d="M68,95.77c3.86,3.77,3.83,3.74,7.19-.11.78-.9,1-1.44,0-2.31-1.71-1.54-3.31-3.2-5-4.81-.47-.45-.8-.9-1.66-.36-3.73,2.36-4,4.21-1,7.19Z"/><path class="e" d="M76.69,87l1.23,1.2c2.48,2.42,2.72,2.35,4.91-.35.76-.94.51-1.41-.21-2.09C81,84.19,79.35,82.57,77.7,81c-.44-.42-.76-1-1.64-.47-2.54,1.5-2.84,3.09-.8,5.09Z"/><path class="e" d="M55,107.67c4.32,4.22,4.32,4.22,8.59-.15,4.46-4.57,4.46-4.57-.07-9a11.52,11.52,0,0,1-1.23-1.22c-1-1.29-1.74-1-2.7.08C58.1,99,56.5,100.57,55,102.15,52.2,105,52.2,105,55,107.67Z"/><path class="e" d="M46.36,108.68q4.59,4.52,9.22,9c.38.37.78,1,1.38.27h0a1.94,1.94,0,0,0,.22-.22c.72-.86-.06-1.13-.41-1.48-1.45-1.47-2.94-2.9-4.42-4.34s-3.06-3-4.62-4.49c-.36-.34-.65-1.11-1.5-.33a1.94,1.94,0,0,0-.18.19l0,0C45.28,108,46,108.32,46.36,108.68Z"/><path class="f" d="M36,110.17c1.27-1.32,2-1.41,3.34-.06,5,5,10,9.9,15.1,14.77,1.13,1.08,1.3,1.77.11,3q-6.62,6.74-13.22,13.5,2.47,1.73,5.09,3.26l3-3.07c4.1-4.21,8.2-8.44,12.34-12.61,1.26-1.27,2-2.87.74-4.15-1.8-1.8-.76-2.69.52-3.84s2.82-2.7,1.85-4.68c-.69-1.41-.09-2,.73-2.85Q77,101.71,88.48,90c.63-.64,1.68-1.21,1.62-2.12-.19-2.7,1.9-3.1,3.61-3.94,1.26-.61,2.55-1.16,3.78-1.81a3.39,3.39,0,0,0,2-3.87c-.57-3.34-1.08-6.69-1.61-10a3.18,3.18,0,0,0-2.92-2.89c-3.44-.48-6.89-.89-10.32-1.36a3.14,3.14,0,0,0-3.57,2C80.11,68,79.22,70,78.27,72c-.25.52-.21,1.41-1.22,1.24-1.66-.27-2.55.91-3.52,1.91Q62.25,86.71,51,98.27c-1,1.08-1.86,2.19-3.65,1.09-.94-.58-2.05-.11-2.86.82s-1.75,1.76-2.58,2.69c-.56.62-.92.58-1.6.06-2.74-2.1-3.34-2-5.8.5L19.75,118.51c1,1.7,2.15,3.34,3.32,4.95Q29.55,116.84,36,110.17ZM82.56,76a22.83,22.83,0,0,0,1.9-4.35c.68-2.09,1.88-2.57,4-2.21,4.52.75,6.41,2.56,5.47,7.16-.6,2.92-4.45,2.65-6.63,4.16-.9.62-1.91,1.2-2.9,0-.32-.38-.71-.7-1.24-1.22C81.81,78.79,81.65,77.61,82.56,76Zm-6.51,4.5c.89-.52,1.2.06,1.64.47,1.65,1.58,3.26,3.21,4.92,4.77.72.68,1,1.15.21,2.09-2.19,2.7-2.43,2.77-4.91.35L76.69,87l-1.43-1.4C73.22,83.61,73.52,82,76.06,80.51Zm-7.5,7.67c.86-.55,1.19-.1,1.66.36,1.66,1.61,3.25,3.27,5,4.81,1,.87.78,1.42,0,2.31-3.36,3.85-3.32,3.88-7.19.11l-.41-.4C64.54,92.39,64.83,90.54,68.56,88.18Zm-13.6,14c1.54-1.58,3.15-3.11,4.61-4.76,1-1.09,1.73-1.37,2.7-.08a11.52,11.52,0,0,0,1.23,1.22c4.53,4.43,4.53,4.43.07,9-4.27,4.37-4.27,4.37-8.59.15C52.2,105,52.2,105,55,102.15ZM46,107.31l0,0a1.94,1.94,0,0,1,.18-.19c.85-.78,1.13,0,1.5.33,1.56,1.47,3.08,3,4.62,4.49s3,2.87,4.42,4.34c.35.36,1.14.62.41,1.48a1.94,1.94,0,0,1-.22.22h0c-.6.75-1,.1-1.38-.27q-4.62-4.49-9.22-9C46,108.32,45.28,108,46,107.31Z"/></svg>