<svg xmlns="http://www.w3.org/2000/svg" xmlns:xlink="http://www.w3.org/1999/xlink" viewBox="0 0 785 157"><defs><style>.a{fill:url(#a);}.b,.c{fill:none;}.b{stroke:#fff;stroke-miterlimit:10;stroke-width:5px;}.d{fill:#f2f2f2;}</style><linearGradient id="a" x1="30.93" y1="132.69" x2="139.47" y2="24.15" gradientUnits="userSpaceOnUse"><stop offset="0" stop-color="#72afd3"/><stop offset="1" stop-color="#37ecba"/></linearGradient></defs><title>Pass_the_Aux_Logo_2019</title><path d="M214,88.73v23.79H198.47v-69h24.36q26.1,0,26.1,22a21.12,21.12,0,0,1-7.49,16.83q-7.49,6.43-20,6.43Zm0-33.32V76.94h6.12q12.42,0,12.42-10.88,0-10.64-12.42-10.64Z"/><path d="M295.4,112.52H281v-7.08h-.19a16.07,16.07,0,0,1-14.69,8.28q-7.18,0-11.29-4.07T250.72,98.8q0-14.35,17-16.56l13.39-1.78q0-8.09-8.76-8.09a29.92,29.92,0,0,0-16.76,5.25V66.15a37.75,37.75,0,0,1,8.69-2.89,45.7,45.7,0,0,1,10-1.25q21.09,0,21.09,21Zm-14.3-20V89.17l-9,1.16q-7.42,1-7.42,6.69a5.53,5.53,0,0,0,1.81,4.26,6.94,6.94,0,0,0,4.89,1.66,9,9,0,0,0,7-3A10.7,10.7,0,0,0,281.1,92.49Z"/><path d="M304.21,111.22V98.89a32.36,32.36,0,0,0,7.49,3.37,24.81,24.81,0,0,0,7.05,1.11,15.12,15.12,0,0,0,6.38-1.11,3.58,3.58,0,0,0,2.33-3.37,3.12,3.12,0,0,0-1.06-2.41,9.86,9.86,0,0,0-2.72-1.69,30.88,30.88,0,0,0-3.64-1.3q-2-.58-3.8-1.3a36.44,36.44,0,0,1-5.18-2.38,14.93,14.93,0,0,1-3.75-3A11.62,11.62,0,0,1,305,83a15.55,15.55,0,0,1-.79-5.25A13.52,13.52,0,0,1,306,70.58a14.75,14.75,0,0,1,4.82-4.89,22,22,0,0,1,6.89-2.79,35.9,35.9,0,0,1,8.07-.89,44.77,44.77,0,0,1,6.64.51A49.58,49.58,0,0,1,339.07,64V75.73a24,24,0,0,0-6.19-2.53,26.13,26.13,0,0,0-6.48-.84,14.37,14.37,0,0,0-2.82.27,9.26,9.26,0,0,0-2.33.77,4.28,4.28,0,0,0-1.59,1.3,3,3,0,0,0-.58,1.81,3.33,3.33,0,0,0,.87,2.31,7.49,7.49,0,0,0,2.26,1.66,22.21,22.21,0,0,0,3.11,1.25q1.71.55,3.39,1.13a44.17,44.17,0,0,1,5.49,2.31,17.59,17.59,0,0,1,4.21,2.94,11.55,11.55,0,0,1,2.7,3.95,15.8,15.8,0,0,1-1,12.88A15.24,15.24,0,0,1,335.1,110a22.93,22.93,0,0,1-7.27,2.84,40.31,40.31,0,0,1-8.55.89A44.07,44.07,0,0,1,304.21,111.22Z"/><path d="M347.6,111.22V98.89a32.36,32.36,0,0,0,7.49,3.37,24.81,24.81,0,0,0,7.05,1.11,15.12,15.12,0,0,0,6.38-1.11,3.58,3.58,0,0,0,2.33-3.37,3.12,3.12,0,0,0-1.06-2.41,9.86,9.86,0,0,0-2.72-1.69,30.88,30.88,0,0,0-3.64-1.3q-2-.58-3.8-1.3a36.44,36.44,0,0,1-5.18-2.38,14.93,14.93,0,0,1-3.75-3,11.62,11.62,0,0,1-2.31-3.9,15.55,15.55,0,0,1-.79-5.25,13.52,13.52,0,0,1,1.81-7.13,14.75,14.75,0,0,1,4.82-4.89,22,22,0,0,1,6.89-2.79,35.9,35.9,0,0,1,8.07-.89,44.77,44.77,0,0,1,6.64.51A49.58,49.58,0,0,1,382.46,64V75.73a24,24,0,0,0-6.19-2.53,26.13,26.13,0,0,0-6.48-.84,14.37,14.37,0,0,0-2.82.27,9.26,9.26,0,0,0-2.33.77,4.28,4.28,0,0,0-1.59,1.3,3,3,0,0,0-.58,1.81,3.33,3.33,0,0,0,.87,2.31,7.49,7.49,0,0,0,2.26,1.66,22.21,22.21,0,0,0,3.11,1.25q1.71.55,3.39,1.13a44.17,44.17,0,0,1,5.49,2.31,17.59,17.59,0,0,1,4.21,2.94,11.55,11.55,0,0,1,2.7,3.95,15.8,15.8,0,0,1-1,12.88,15.24,15.24,0,0,1-5.06,5.06,22.93,22.93,0,0,1-7.27,2.84,40.31,40.31,0,0,1-8.55.89A44.07,44.07,0,0,1,347.6,111.22Z"/><path d="M451.22,111.94q-3.37,1.78-10.16,1.78Q425,113.72,425,97V74.43h-8V63.21h8V52.57l15.17-4.33v15h11.08V74.43H440.14V94.37q0,7.7,6.12,7.7a10.31,10.31,0,0,0,5-1.4Z"/><path d="M507.12,112.52H492v-28q0-10.83-7.9-10.83a8.08,8.08,0,0,0-6.55,3,11.7,11.7,0,0,0-2.5,7.7v28.12H459.79v-73H475v31h.19Q480.78,62,490.36,62q16.76,0,16.76,20.22Z"/><path d="M563.46,92.2H531.29q.77,10.74,13.53,10.74a26.41,26.41,0,0,0,14.3-3.85v11q-6.84,3.66-17.77,3.66-11.94,0-18.54-6.62t-6.6-18.47q0-12.28,7.13-19.45A23.74,23.74,0,0,1,540.87,62q10.79,0,16.68,6.4t5.9,17.38Zm-14.11-9.34q0-10.59-8.57-10.59a8.18,8.18,0,0,0-6.33,3,13.77,13.77,0,0,0-3.25,7.56Z"/><path d="M661.93,112.52H645l-4.91-15.36H615.51l-4.86,15.36H593.79l25.13-69h18.44ZM636.5,85.22,629.09,62a30.23,30.23,0,0,1-1.16-6.21h-.38a26.34,26.34,0,0,1-1.2,6l-7.51,23.4Z"/><path d="M715.9,112.52H700.74V105h-.24q-5.63,8.72-15.07,8.72-17.14,0-17.14-20.75V63.21h15.17V91.62q0,10.45,8.28,10.45a8.19,8.19,0,0,0,6.55-2.87,11.55,11.55,0,0,0,2.46-7.78V63.21H715.9Z"/><path d="M776.33,63.21,760.06,87.1l16.18,25.42H758.71l-7.13-13.29q-.87-1.59-2.07-4.48h-.19a31.24,31.24,0,0,1-2,4.33l-7.17,13.43H722.69L739.35,88,723.7,63.21h17.62l7,13.82a30.27,30.27,0,0,1,2,4.62h.19a32.42,32.42,0,0,1,2.07-4.72l7.17-13.72Z"/><circle class="a" cx="85.2" cy="78.42" r="76.75"/><path class="b" d="M86.65,47.23a28.88,28.88,0,0,1,29.22,28.56"/><path class="b" d="M86.5,37.35a38.88,38.88,0,0,1,39.34,38.46"/><path class="b" d="M86.35,27.72a48.36,48.36,0,0,1,48.94,47.83"/><path class="b" d="M86.2,17.85c32.14-.49,58.55,25.32,59,57.71"/><path class="c" d="M83.18,79.59c.53.52.92.84,1.24,1.22,1,1.18,2,.6,2.9,0,2.18-1.52,6-1.24,6.63-4.16.94-4.6-1-6.41-5.47-7.16-2.13-.36-3.34.13-4,2.21A22.83,22.83,0,0,1,82.56,76C81.65,77.61,81.81,78.79,83.18,79.59Z"/><path class="c" d="M68,95.77c3.86,3.77,3.83,3.74,7.19-.11.78-.9,1-1.44,0-2.31-1.71-1.54-3.31-3.2-5-4.81-.47-.45-.8-.9-1.66-.36-3.73,2.36-4,4.21-1,7.19Z"/><path class="c" d="M76.69,87l1.23,1.2c2.48,2.42,2.72,2.35,4.91-.35.76-.94.51-1.41-.21-2.09C81,84.19,79.35,82.57,77.7,81c-.44-.42-.76-1-1.64-.47-2.54,1.5-2.84,3.09-.8,5.09Z"/><path class="c" d="M55,107.67c4.32,4.22,4.32,4.22,8.59-.15,4.46-4.57,4.46-4.57-.07-9a11.52,11.52,0,0,1-1.23-1.22c-1-1.29-1.74-1-2.7.08C58.1,99,56.5,100.57,55,102.15,52.2,105,52.2,105,55,107.67Z"/><path class="c" d="M46.36,108.68q4.59,4.52,9.22,9c.38.37.78,1,1.38.27h0a1.94,1.94,0,0,0,.22-.22c.72-.86-.06-1.13-.41-1.48-1.45-1.47-2.94-2.9-4.42-4.34s-3.06-3-4.62-4.49c-.36-.34-.65-1.11-1.5-.33a1.94,1.94,0,0,0-.18.19l0,0C45.28,108,46,108.32,46.36,108.68Z"/><path class="d" d="M36,110.17c1.27-1.32,2-1.41,3.34-.06,5,5,10,9.9,15.1,14.77,1.13,1.08,1.3,1.77.11,3q-6.62,6.74-13.22,13.5,2.47,1.73,5.09,3.26l3-3.07c4.1-4.21,8.2-8.44,12.34-12.61,1.26-1.27,2-2.87.74-4.15-1.8-1.8-.76-2.69.52-3.84s2.82-2.7,1.85-4.68c-.69-1.41-.09-2,.73-2.85Q77,101.71,88.48,90c.63-.64,1.68-1.21,1.62-2.12-.19-2.7,1.9-3.1,3.61-3.94,1.26-.61,2.55-1.16,3.78-1.81a3.39,3.39,0,0,0,2-3.87c-.57-3.34-1.08-6.69-1.61-10a3.18,3.18,0,0,0-2.92-2.89c-3.44-.48-6.89-.89-10.32-1.36a3.14,3.14,0,0,0-3.57,2C80.11,68,79.22,70,78.27,72c-.25.52-.21,1.41-1.22,1.24-1.66-.27-2.55.91-3.52,1.91Q62.25,86.71,51,98.27c-1,1.08-1.86,2.19-3.65,1.09-.94-.58-2.05-.11-2.86.82s-1.75,1.76-2.58,2.69c-.56.62-.92.58-1.6.06-2.74-2.1-3.34-2-5.8.5L19.75,118.51c1,1.7,2.15,3.34,3.32,4.95Q29.55,116.84,36,110.17ZM82.56,76a22.83,22.83,0,0,0,1.9-4.35c.68-2.09,1.88-2.57,4-2.21,4.52.75,6.41,2.56,5.47,7.16-.6,2.92-4.45,2.65-6.63,4.16-.9.62-1.91,1.2-2.9,0-.32-.38-.71-.7-1.24-1.22C81.81,78.79,81.65,77.61,82.56,76Zm-6.51,4.5c.89-.52,1.2.06,1.64.47,1.65,1.58,3.26,3.21,4.92,4.77.72.68,1,1.15.21,2.09-2.19,2.7-2.43,2.77-4.91.35L76.69,87l-1.43-1.4C73.22,83.61,73.52,82,76.06,80.51Zm-7.5,7.67c.86-.55,1.19-.1,1.66.36,1.66,1.61,3.25,3.27,5,4.81,1,.87.78,1.42,0,2.31-3.36,3.85-3.32,3.88-7.19.11l-.41-.4C64.54,92.39,64.83,90.54,68.56,88.18Zm-13.6,14c1.54-1.58,3.15-3.11,4.61-4.76,1-1.09,1.73-1.37,2.7-.08a11.52,11.52,0,0,0,1.23,1.22c4.53,4.43,4.53,4.43.07,9-4.27,4.37-4.27,4.37-8.59.15C52.2,105,52.2,105,55,102.15ZM46,107.31l0,0a1.94,1.94,0,0,1,.18-.19c.85-.78,1.13,0,1.5.33,1.56,1.47,3.08,3,4.62,4.49s3,2.87,4.42,4.34c.35.36,1.14.62.41,1.48a1.94,1.94,0,0,1-.22.22h0c-.6.75-1,.1-1.38-.27q-4.62-4.49-9.22-9C46,108.32,45.28,108,46,107.31Z"/></svg>